<svg width="207" height="50" viewBox="0 0 207 50" fill="none" xmlns="http://www.w3.org/2000/svg">
<g clip-path="url(#clip0_904_536)">
<path d="M69.7454 23.6706C69.0704 25.2985 68.0674 26.7674 66.7831 27.9837C65.4613 29.228 63.9052 30.2011 62.2084 30.8466C60.3523 31.5577 58.3649 31.9132 56.3776 31.8945H46.2627V4.82775H56.3776C58.3649 4.80903 60.3429 5.1552 62.2084 5.84754C63.9052 6.48375 65.4613 7.45677 66.7831 8.69175C68.058 9.89867 69.0704 11.3582 69.7454 12.9861C70.4484 14.6702 70.8047 16.4852 70.7953 18.319C70.814 20.1528 70.4578 21.9772 69.7454 23.6706ZM65.1145 14.6983C64.6832 13.6036 64.0364 12.6119 63.2115 11.7699C62.3678 10.9185 61.3554 10.2542 60.2398 9.81446C59.0024 9.33731 57.6806 9.09406 56.3588 9.11277H50.9967V27.6001H56.3588C57.6806 27.6188 59.0024 27.3849 60.2398 26.9265C61.3554 26.5055 62.3678 25.8599 63.2115 25.0179C64.0364 24.1852 64.6832 23.1935 65.1145 22.1082C65.5738 20.9293 65.8082 19.6663 65.7988 18.3939C65.8175 17.1215 65.5832 15.8678 65.1145 14.6796V14.6983Z" fill="#27B45F"/>
<path d="M81.5674 4.82739V31.8941H76.8428V4.82739H81.5674Z" fill="#27B45F"/>
<path d="M110.805 29.7705C109.971 30.2945 109.09 30.7529 108.171 31.1178C107.187 31.5201 106.174 31.8195 105.134 32.0253C104.009 32.2498 102.865 32.3621 101.721 32.3528C99.7434 32.3808 97.7842 32.016 95.9468 31.2862C92.5908 29.9576 89.9566 27.2818 88.663 23.9231C87.9786 22.1548 87.6412 20.2836 87.6599 18.3937C87.6505 16.5412 87.9974 14.6981 88.6817 12.9766C89.3379 11.3113 90.3222 9.79559 91.569 8.51383C92.8345 7.22271 94.3438 6.19355 96.0031 5.47315C97.7842 4.71531 99.7059 4.33172 101.637 4.35043C102.724 4.34108 103.803 4.42528 104.871 4.60304C105.79 4.76209 106.69 5.00535 107.562 5.32345C108.377 5.6322 109.165 6.00643 109.905 6.46488C110.665 6.93267 111.377 7.45661 112.052 8.02732L109.033 11.62C108.527 11.1896 108.002 10.7873 107.449 10.4224C106.905 10.0669 106.334 9.76752 105.743 9.52427C105.106 9.27166 104.449 9.07518 103.774 8.9442C103.006 8.79451 102.218 8.72901 101.431 8.72901C100.231 8.71966 99.0497 8.98162 97.9623 9.48685C96.903 9.98271 95.9562 10.6844 95.1687 11.5639C94.3719 12.462 93.7345 13.5005 93.3126 14.6233C92.8533 15.8115 92.6283 17.0745 92.6283 18.3469C92.6189 19.6661 92.8439 20.9666 93.2939 22.2109C93.7064 23.3524 94.3438 24.4096 95.1687 25.2984C95.9843 26.1685 96.978 26.8608 98.0654 27.3286C99.256 27.8338 100.55 28.0865 101.843 28.0677C103.071 28.0771 104.299 27.89 105.462 27.5064C106.512 27.1696 107.496 26.6644 108.387 26.0094V20.9104H101.459V16.7751H113.008V28.1426C112.324 28.732 111.583 29.2747 110.805 29.7705Z" fill="#27B45F"/>
<path d="M124.21 4.82739V31.8941H119.495V4.82739H124.21Z" fill="#27B45F"/>
<path d="M154.986 23.6706C154.311 25.2985 153.308 26.7674 152.033 27.9837C150.702 29.228 149.146 30.2011 147.449 30.8466C145.593 31.5577 143.606 31.9132 141.619 31.8945H131.522V4.82775H141.637C143.625 4.80903 145.603 5.1552 147.468 5.84754C149.165 6.48375 150.712 7.45677 152.033 8.69175C153.308 9.89867 154.321 11.3582 154.996 12.9861C155.699 14.6702 156.055 16.4852 156.046 18.319C156.055 20.1528 155.699 21.9772 154.986 23.6706ZM150.346 14.6889C149.915 13.5943 149.268 12.6025 148.443 11.7605C147.599 10.9185 146.587 10.2542 145.481 9.82382C144.243 9.34667 142.922 9.10341 141.59 9.12212H136.228V27.6001H141.59C142.912 27.6188 144.234 27.3849 145.481 26.9265C146.596 26.5055 147.609 25.8599 148.452 25.0179C149.277 24.1852 149.924 23.1935 150.346 22.1082C150.815 20.9293 151.04 19.6663 151.03 18.3939C151.049 17.1308 150.815 15.8678 150.346 14.6889Z" fill="#27B45F"/>
<path d="M181.881 9.11241H166.535V16.0732H180.137V20.3676H166.535V27.5998H182.078V31.8941H161.811V4.82739H181.881V9.11241Z" fill="#27B45F"/>
<path d="M192.034 13.2946C192.268 13.7344 192.606 14.1086 193.027 14.3799C193.637 14.7822 194.302 15.091 194.996 15.3061C195.84 15.5962 196.908 15.8862 198.202 16.195C199.496 16.5131 200.761 16.9154 202.008 17.3925C203.002 17.7668 203.93 18.3094 204.745 18.9924C205.448 19.6005 206.011 20.349 206.395 21.2004C206.789 22.136 206.976 23.1464 206.958 24.1569C206.976 25.3451 206.733 26.5146 206.245 27.5999C205.786 28.5822 205.111 29.4617 204.277 30.154C203.377 30.8838 202.336 31.4171 201.221 31.7445C199.955 32.1188 198.633 32.2965 197.311 32.2872C195.259 32.2965 193.224 31.9317 191.303 31.2206C189.334 30.4815 187.534 29.3681 185.987 27.9554L188.856 24.5498C190.056 25.607 191.396 26.4865 192.849 27.1601C194.293 27.787 195.849 28.0957 197.415 28.0676C198.886 28.0676 200.058 27.7589 200.921 27.1414C201.764 26.5801 202.252 25.6257 202.214 24.6153C202.224 24.1662 202.139 23.7171 201.961 23.2961C201.755 22.8657 201.427 22.4915 201.024 22.2295C200.443 21.846 199.824 21.5372 199.158 21.322C198.146 20.9758 197.115 20.6765 196.065 20.4332C194.752 20.1432 193.468 19.7689 192.202 19.3105C191.181 18.955 190.224 18.431 189.371 17.7668C188.621 17.168 188.022 16.4008 187.628 15.5213C187.206 14.5109 187 13.4256 187.028 12.3403C187.009 11.2176 187.243 10.1136 187.722 9.0938C188.172 8.1395 188.818 7.28811 189.625 6.59577C190.478 5.87536 191.471 5.33272 192.54 4.9959C193.74 4.61231 194.996 4.42519 196.252 4.43455C198.08 4.40648 199.889 4.70587 201.614 5.30465C203.236 5.90343 204.745 6.75482 206.095 7.83075L203.536 11.4328C202.402 10.5908 201.164 9.88906 199.852 9.36513C198.68 8.89733 197.433 8.65407 196.168 8.65407C194.771 8.65407 193.693 8.97218 192.915 9.59903C192.184 10.1417 191.753 10.9931 191.753 11.9006C191.743 12.3684 191.837 12.8549 192.034 13.2946Z" fill="#27B45F"/>
<path d="M4.32227 35.2061C4.35976 35.3838 4.40663 35.5522 4.44413 35.7206C4.39726 35.5522 4.35976 35.3838 4.32227 35.2061Z" fill="#27B45F"/>
<path d="M4.44434 35.7207C4.49121 35.8891 4.53808 36.0575 4.59433 36.2259C4.53808 36.0669 4.50058 35.8985 4.44434 35.7207Z" fill="#27B45F"/>
<path d="M4.09726 33.8494C4.09726 33.8026 4.09726 33.7558 4.08789 33.6997C4.08789 33.7558 4.09726 33.8026 4.09726 33.8494Z" fill="#27B45F"/>
<path d="M4.0875 33.6999C4.05937 33.4193 4.04062 33.1199 4.03125 32.8298C4.03125 32.914 4.03125 32.9889 4.03125 33.0637C4.05 33.2883 4.06875 33.4941 4.0875 33.6999Z" fill="#27B45F"/>
<path d="M4.02246 32.4744C4.02246 29.6208 4.97864 26.8608 6.75039 24.6248C4.97864 26.8702 4.02246 29.6395 4.03184 32.4931V32.6615C4.03184 32.5867 4.02246 32.5305 4.02246 32.4744Z" fill="#27B45F"/>
<path d="M4.18125 34.4951C4.1625 34.3641 4.14375 34.2331 4.125 34.0928C4.14375 34.2144 4.1625 34.3547 4.18125 34.4951Z" fill="#27B45F"/>
<path d="M4.12578 34.0838C4.12578 34.0089 4.10703 33.9247 4.09766 33.8499C4.10703 33.9341 4.11641 34.0089 4.12578 34.0838Z" fill="#27B45F"/>
<path d="M5.80273 38.9583C6.05584 39.3886 6.33707 39.8003 6.64642 40.2026C6.33707 39.8096 6.05584 39.3886 5.80273 38.9583Z" fill="#27B45F"/>
<path d="M6.9375 24.372C7.06874 24.213 7.19998 24.0633 7.3406 23.9136C7.20936 24.0633 7.07811 24.213 6.9375 24.372Z" fill="#27B45F"/>
<path d="M24.2992 17.8695C24.1867 17.6917 24.0461 17.5233 23.8868 17.3923C23.8211 17.3362 23.7555 17.2801 23.6805 17.2333L23.568 17.1678C23.4087 17.0742 23.2399 16.9994 23.0618 16.9526C22.7806 16.8403 22.5181 16.7468 22.2462 16.6439L22.0306 16.5503L21.7775 16.4754C21.3276 16.3351 20.8776 16.2135 20.4089 16.1106H20.3714C20.2401 16.0825 20.0902 16.0544 19.9683 16.0264C19.8464 15.9983 19.6402 15.9609 19.4714 15.9422L19.3027 15.9141C19.1433 15.886 18.984 15.8673 18.8246 15.8486L18.6184 15.8299L18.3934 15.8018L18.2059 15.7831C17.9622 15.7644 17.7184 15.7457 17.4841 15.7363H17.2497H16.781C16.6029 15.7363 16.4154 15.7363 16.2186 15.7363C7.18171 16.0357 0.000976562 23.4456 0.000976562 32.4741C0.000976562 32.577 0.000976562 32.6799 0.000976562 32.7829V33.0635C0.000976562 33.1477 0.000976562 33.2319 0.000976562 33.3161C0.000976562 33.4003 0.000976562 33.522 0.0197252 33.6155L0.0384739 33.8401L0.0572225 34.0178C0.0572225 34.074 0.0572225 34.1208 0.0572225 34.1769C0.0759711 34.3921 0.104094 34.6166 0.132217 34.8318L0.16034 35.0096C0.188463 35.1686 0.216586 35.337 0.244709 35.4961C0.244709 35.5616 0.263458 35.6271 0.282206 35.6926C0.291581 35.758 0.310329 35.8422 0.329078 35.9265C0.385324 36.1884 0.450944 36.4504 0.516564 36.7124C0.535313 36.7966 0.554062 36.8808 0.582185 36.9556C0.600933 37.0398 0.629056 37.124 0.647805 37.1989C0.666554 37.2831 0.685302 37.3298 0.713425 37.4047C0.750922 37.5357 0.797794 37.6667 0.835291 37.7976C0.900912 38.0035 0.975906 38.1999 1.0509 38.3964L1.09777 38.5368C1.21964 38.8361 1.3415 39.1355 1.47275 39.4256C1.49149 39.4724 1.51024 39.5098 1.53837 39.5566C1.62273 39.7343 1.7071 39.9214 1.80085 40.0992C1.82897 40.1647 1.86647 40.2208 1.89459 40.277L1.92271 40.3237C1.97896 40.436 2.04458 40.5576 2.1102 40.6699C2.17582 40.7822 2.23207 40.8851 2.28831 40.988C2.29769 41.0067 2.31643 41.0348 2.32581 41.0535C2.38205 41.1471 2.4383 41.2406 2.49455 41.3342C2.50392 41.3529 2.5133 41.3716 2.53204 41.3903C2.59766 41.5026 2.67266 41.6149 2.74765 41.7271L2.93514 42.0078C2.97264 42.064 3.01013 42.1201 3.04763 42.1762L3.207 42.3914L3.29136 42.5037L3.4601 42.7282L3.47885 42.7469L3.73196 43.065L3.91944 43.2896C3.92882 43.2989 3.93819 43.3083 3.94757 43.327C4.02256 43.4112 4.09756 43.5048 4.17255 43.589L4.39753 43.8322C4.47253 43.9164 4.54752 44.0006 4.63189 44.0848L4.86625 44.3281C4.95062 44.4123 5.02561 44.4871 5.10998 44.5713C5.26935 44.721 5.42871 44.8707 5.58807 45.0111L5.6162 45.0391C5.70056 45.114 5.78493 45.1888 5.87868 45.2637C5.97242 45.3385 6.05679 45.4134 6.14116 45.4789L6.35677 45.6566L6.42239 45.7034L6.67549 45.8999C6.76924 45.9654 6.85361 46.0402 6.95672 46.1057C6.97547 46.1151 6.98485 46.1244 7.0036 46.1338C7.07859 46.1899 7.16296 46.2461 7.23795 46.3022L7.51918 46.4987L7.80041 46.6764L7.84729 46.7045C8.03477 46.8168 8.22226 46.929 8.40975 47.0413C8.50349 47.0974 8.59723 47.1442 8.69098 47.2004L8.72847 47.2191C8.82222 47.2659 8.91596 47.322 9.0097 47.3688L9.06595 47.3968C9.14094 47.4343 9.22531 47.481 9.30031 47.5185L9.34718 47.5465C9.54404 47.6401 9.75027 47.7336 9.94713 47.8272L9.98463 47.8459L10.2659 47.9675L10.5471 48.0798L10.594 48.0985C10.6971 48.136 10.8002 48.1827 10.9127 48.2202H10.9314L11.2502 48.3324L11.5126 48.4166L11.6064 48.4447L11.9157 48.5383L12.197 48.6225L12.6001 48.7254L12.8813 48.7909H12.9188C13.1625 48.847 13.4156 48.9031 13.6687 48.9406H13.6969L13.8469 48.9686C14.9436 49.1558 15.9842 48.4166 16.1717 47.3313C16.1811 47.2659 16.1904 47.191 16.1998 47.1255C16.1998 47.0881 16.1998 47.06 16.1998 47.0226C16.1998 46.6671 16.0967 46.3209 15.9186 46.0122C15.8155 45.825 15.6748 45.666 15.5155 45.5256C15.4499 45.4695 15.3842 45.4134 15.3186 45.3666L15.2061 45.3011C15.0468 45.2075 14.878 45.1327 14.6999 45.0859H14.6437C14.5687 45.0672 14.4843 45.0579 14.4093 45.0485C14.2218 45.0111 14.0437 44.9736 13.8469 44.9362L13.6125 44.8801L13.4813 44.8427L13.2188 44.7678C12.4313 44.5433 11.672 44.2439 10.9408 43.879L10.744 43.7761C10.2752 43.5235 9.82527 43.2428 9.39405 42.9341C9.31905 42.8779 9.24406 42.8311 9.16906 42.775L8.88783 42.5598L8.67223 42.3914L8.48474 42.2324L8.41912 42.1762L8.25038 41.9797L8.0254 41.7739L7.80979 41.5681L7.60355 41.3529C7.53793 41.2781 7.46294 41.2126 7.39732 41.1377L7.19108 40.9132L7.02234 40.6699L6.83486 40.436L6.64737 40.2021C6.33802 39.8092 6.05679 39.3881 5.80368 38.9578L5.69119 38.7707L5.58807 38.5835L5.48496 38.3964C5.45683 38.3309 5.41934 38.2654 5.39121 38.1999C5.32559 38.0596 5.25997 37.9193 5.19435 37.7883C5.10998 37.6012 5.02561 37.414 4.95062 37.2269L4.85688 36.9837C4.82875 36.9182 4.80063 36.8527 4.78188 36.7778C4.76313 36.7124 4.75376 36.7124 4.74438 36.6749C4.73501 36.6469 4.69751 36.5533 4.67876 36.4878C4.66002 36.4223 4.62252 36.3194 4.60377 36.2352C4.54752 36.0668 4.50065 35.8984 4.45378 35.73C4.40691 35.5616 4.36941 35.3838 4.33191 35.2154C4.31317 35.1312 4.29442 35.0376 4.27567 34.9534L4.23817 34.7195C4.23817 34.6447 4.21005 34.5698 4.20067 34.4856C4.09756 33.8214 4.04131 33.1477 4.04131 32.4741C4.04131 29.6205 4.99749 26.8605 6.76924 24.6245L6.95672 24.3906C7.08797 24.2315 7.21921 24.0818 7.35982 23.9321C7.50044 23.7824 7.64105 23.6327 7.78167 23.4924C10.0315 21.2283 13.0594 19.8904 16.2561 19.75C16.4342 19.75 16.6217 19.75 16.8185 19.75H17.0716H17.231C17.2966 19.75 17.3716 19.75 17.4466 19.75C17.5122 19.75 17.6528 19.75 17.7559 19.7687H17.9059L18.0934 19.7875H18.159C18.2528 19.7875 18.3559 19.8062 18.4403 19.8249C18.5434 19.8249 18.6371 19.8529 18.7402 19.8623C18.759 19.8623 18.7777 19.8623 18.7965 19.8623L19.0402 19.8997L19.4058 19.9652L19.6496 20.0213L19.7902 20.0494C19.9402 20.0868 20.0714 20.1243 20.2308 20.1617L20.4464 20.2272L20.7276 20.3114L21.0088 20.4049L21.2526 20.4891L21.3838 20.5359L21.5619 20.6014L21.6932 20.6576C21.7588 20.695 21.8338 20.723 21.8994 20.7511C22.115 20.826 22.3494 20.8634 22.5743 20.8634C23.6524 20.8634 24.543 20.0213 24.5992 18.9454C24.5992 18.908 24.5992 18.8799 24.5992 18.8425C24.5805 18.5057 24.4773 18.1689 24.2992 17.8695Z" fill="#27B45F"/>
<path d="M29.062 -0.00012207C30.2057 -0.00012207 31.1338 0.926116 31.1338 2.0769V47.1725C31.1338 48.314 30.2057 49.2496 29.062 49.2496C27.9184 49.2496 26.9903 48.3233 26.9903 47.1725V2.0769C26.9809 0.926116 27.909 -0.00012207 29.062 -0.00012207Z" fill="#27B45F"/>
<path d="M18.318 33.0732C17.1743 33.0357 16.2088 33.9246 16.1619 35.066C16.115 36.2074 17.015 37.1711 18.1586 37.2178C18.2055 37.2178 18.2618 37.2178 18.3086 37.2178H20.4085V47.1632C20.371 48.3046 21.2615 49.2683 22.4052 49.3151C23.5489 49.3525 24.5144 48.4637 24.5613 47.3223C24.5613 47.2755 24.5613 47.2193 24.5613 47.1726V33.0732H18.318Z" fill="#27B45F"/>
<path d="M50.6503 46.7891H49.0848V39.3886H46.2725V37.9478H53.4626V39.3886H50.6503V46.7891Z" fill="#27B45F"/>
<path d="M55.5624 46.7889H54.0156V40.1088H55.5624V41.6151C55.7499 41.1379 56.0592 40.7169 56.4623 40.3988C56.8842 40.0901 57.4091 39.9404 57.9341 39.9778V41.5964H57.8404C57.5216 41.5964 57.2123 41.6525 56.9123 41.7648C56.6404 41.8677 56.3873 42.0361 56.1905 42.2513C55.9749 42.4946 55.8155 42.7846 55.7218 43.0933C55.6093 43.4676 55.553 43.8605 55.5624 44.2535V46.7889Z" fill="#27B45F"/>
<path d="M63.0244 46.7889V45.9656C62.7807 46.2463 62.4807 46.4802 62.1526 46.6486C61.7495 46.8451 61.3089 46.9386 60.859 46.9293C60.5496 46.9293 60.2403 46.8825 59.9497 46.7983C59.6778 46.7141 59.4247 46.5831 59.1997 46.4054C58.731 46.0311 58.4685 45.4698 58.4873 44.871V44.8429C58.4779 44.5155 58.5529 44.188 58.6935 43.898C58.8247 43.636 59.0122 43.4021 59.256 43.2243C59.5184 43.0372 59.809 42.9062 60.1184 42.822C60.4746 42.7285 60.8309 42.691 61.1965 42.691C61.5433 42.691 61.8901 42.7098 62.2276 42.7659C62.4995 42.8127 62.7713 42.8782 63.0432 42.9717V42.8033C63.0713 42.401 62.912 42.0174 62.6214 41.7461C62.2745 41.4841 61.8339 41.3531 61.4027 41.3812C61.0652 41.3812 60.7184 41.4186 60.3903 41.4935C60.0809 41.5683 59.7809 41.6712 59.4903 41.7929L59.0591 40.5766C59.4247 40.4082 59.8091 40.2772 60.2028 40.1743C60.6621 40.062 61.1308 40.0152 61.6089 40.0246C62.6026 40.0246 63.3432 40.2679 63.8306 40.7637C64.3181 41.2596 64.5525 41.9519 64.5525 42.8407V46.7983L63.0244 46.7889ZM63.0619 43.9635C62.837 43.8793 62.612 43.8138 62.3776 43.7763C62.0964 43.7202 61.8152 43.7015 61.5339 43.7015C61.1402 43.6828 60.7465 43.7763 60.409 43.9822C60.1465 44.1599 59.9872 44.4593 60.0059 44.7774V44.8055C59.9965 45.0955 60.1372 45.3762 60.3809 45.5352C60.6527 45.713 60.9715 45.7972 61.2996 45.7879C61.5339 45.7879 61.7777 45.7598 62.0026 45.6849C62.2089 45.6195 62.3964 45.5259 62.5651 45.4043C62.7245 45.2826 62.8463 45.1329 62.9401 44.9645C63.0338 44.7868 63.0713 44.5903 63.0713 44.3938L63.0619 43.9635Z" fill="#27B45F"/>
<path d="M67.9081 46.7891H66.3613V40.109H67.9081V41.1569C68.0112 40.9978 68.1331 40.8481 68.2643 40.7078C68.3956 40.5581 68.5549 40.4364 68.7237 40.3335C69.0986 40.0903 69.5392 39.9686 69.9892 39.978C70.6454 39.9406 71.2922 40.1932 71.7422 40.6703C72.1734 41.1943 72.3984 41.8586 72.3609 42.5415V46.7798H70.8141V43C70.8423 42.5696 70.711 42.1392 70.4392 41.7931C70.1673 41.503 69.783 41.344 69.3892 41.372C68.9861 41.3533 68.5924 41.5124 68.3112 41.8024C68.0206 42.1392 67.8706 42.579 67.8987 43.0187L67.9081 46.7891Z" fill="#27B45F"/>
<path d="M78.8012 45.7408C78.6793 45.9934 78.5012 46.218 78.2762 46.3957C78.0419 46.5735 77.77 46.7045 77.4794 46.7887C77.1607 46.8822 76.8326 46.929 76.5045 46.9197C76.0076 46.9197 75.5108 46.8355 75.0421 46.667C74.5452 46.4986 74.0765 46.246 73.6641 45.9186L74.3484 44.8801C74.6859 45.1327 75.0608 45.3385 75.4546 45.4976C75.8014 45.6285 76.167 45.7034 76.5326 45.7034C76.8045 45.7221 77.0669 45.6472 77.3013 45.5069C77.4794 45.3946 77.5825 45.1982 77.5825 44.983V44.9549C77.5825 44.8333 77.545 44.721 77.4607 44.6275C77.3669 44.5245 77.2544 44.4403 77.1326 44.3842C76.9826 44.3093 76.8138 44.2439 76.6545 44.1971L76.092 44.0287C75.8483 43.9538 75.5952 43.8696 75.3514 43.7761C75.1077 43.6919 74.8827 43.5702 74.6765 43.4112C74.4796 43.2615 74.3109 43.0837 74.189 42.8685C74.0578 42.6253 73.9922 42.3446 74.0015 42.0639V42.0359C74.0015 41.7458 74.0578 41.4558 74.189 41.1938C74.3109 40.9412 74.4796 40.726 74.6952 40.5483C74.9202 40.3705 75.1733 40.2302 75.4546 40.146C75.7545 40.0524 76.0733 40.0056 76.3826 40.0056C76.8138 40.0056 77.245 40.0711 77.6575 40.2114C78.0794 40.3424 78.4731 40.5296 78.8387 40.7728L78.2294 41.8581C77.92 41.671 77.5919 41.5119 77.2544 41.3997C76.9638 41.2967 76.6545 41.2312 76.3451 41.2312C76.1014 41.2219 75.8576 41.2874 75.6514 41.4184C75.4921 41.5306 75.4077 41.7084 75.4077 41.8955V41.9236C75.4077 42.0359 75.4546 42.1481 75.5296 42.2323C75.6233 42.3259 75.7452 42.4101 75.867 42.4662C76.017 42.5504 76.1858 42.6159 76.3451 42.6721C76.5326 42.7376 76.7201 42.7937 76.9076 42.8592C77.1513 42.934 77.395 43.0182 77.6388 43.1211C77.8731 43.2147 78.0981 43.3457 78.3043 43.4954C78.5012 43.6451 78.6606 43.8228 78.7824 44.038C78.9137 44.2719 78.9793 44.5432 78.9699 44.8052V44.8333C78.998 45.142 78.9324 45.4601 78.8012 45.7408Z" fill="#27B45F"/>
<path d="M84.1829 40.1649V41.4279H82.4393V46.7889H80.8925V41.4279H80.0488V40.1555H80.8925V39.6784C80.8925 38.9392 81.0706 38.3873 81.4269 38.0317C81.8393 37.6481 82.3924 37.461 82.9549 37.4891C83.1892 37.4891 83.4236 37.5078 83.6486 37.5359C83.8361 37.5639 84.0142 37.6107 84.1923 37.6575V38.9486C84.0517 38.9018 83.9017 38.8644 83.7611 38.827C83.6111 38.7989 83.4517 38.7802 83.3017 38.7802C82.7111 38.7802 82.4205 39.117 82.4205 39.7906V40.1555L84.1829 40.1649Z" fill="#27B45F"/>
<path d="M91.6718 44.8055C91.3156 45.6475 90.6406 46.3118 89.7875 46.6673C88.8782 47.0322 87.8564 47.0322 86.9471 46.6673C86.1034 46.3211 85.4285 45.6568 85.0816 44.8242C84.7254 43.9541 84.7254 42.9904 85.0816 42.1203C85.2597 41.6993 85.5128 41.325 85.8316 40.9976C86.5065 40.324 87.4252 39.9591 88.3814 39.9684C88.8688 39.9684 89.3563 40.062 89.8063 40.2491C91.1093 40.7824 91.953 42.0455 91.9436 43.4488C91.9436 43.9166 91.8499 44.3751 91.6718 44.8055ZM90.2469 42.6442C90.1531 42.3916 90.0031 42.1577 89.825 41.9519C89.6469 41.7554 89.4219 41.5964 89.1782 41.4841C88.4001 41.1192 87.4721 41.3063 86.8909 41.9425C86.7128 42.139 86.5815 42.3729 86.4878 42.6162C86.394 42.8875 86.3472 43.1682 86.3472 43.4582C86.3472 43.7482 86.394 44.0289 86.4971 44.3002C86.6846 44.8055 87.069 45.2265 87.5564 45.451C87.8096 45.5633 88.0908 45.6288 88.372 45.6194C88.6626 45.6288 88.9532 45.5633 89.2157 45.451C89.4594 45.3387 89.675 45.1797 89.8532 44.9926C90.0313 44.7961 90.1625 44.5622 90.2562 44.3189C90.35 44.057 90.3969 43.7763 90.3969 43.4956C90.4062 43.2056 90.35 42.9156 90.2469 42.6442Z" fill="#27B45F"/>
<path d="M95.0468 46.7887H93.5V40.1086H95.0468V41.6149C95.2343 41.1377 95.5436 40.7167 95.9467 40.3986C96.3685 40.0805 96.8935 39.9402 97.4185 39.9776V41.5962H97.3247C97.006 41.5962 96.6967 41.6523 96.3967 41.7646C96.1248 41.8675 95.8717 42.0359 95.6748 42.2511C95.4592 42.4943 95.2999 42.7844 95.2061 43.0931C95.0936 43.4674 95.0374 43.8603 95.0468 44.2533V46.7887Z" fill="#27B45F"/>
<path d="M105.255 40.3051C105.658 40.0806 106.108 39.9683 106.567 39.9777C107.214 39.9402 107.842 40.1835 108.292 40.6419C108.705 41.0817 108.911 41.7179 108.911 42.5318V46.7888H107.364V43.009C107.392 42.5786 107.27 42.1389 107.017 41.7927C106.764 41.512 106.399 41.353 106.024 41.3717C105.639 41.3623 105.264 41.512 105.002 41.7927C104.711 42.1389 104.571 42.5786 104.599 43.0183V46.7794H103.052V42.9903C103.08 42.5599 102.958 42.1389 102.696 41.7927C102.443 41.512 102.077 41.353 101.702 41.3717C101.308 41.353 100.933 41.5214 100.671 41.8114C100.39 42.1576 100.249 42.5973 100.277 43.037V46.7794H98.7305V40.0993H100.277V41.1191C100.39 40.9694 100.502 40.8197 100.633 40.6887C100.765 40.5484 100.915 40.4267 101.065 40.3145C101.243 40.2022 101.43 40.118 101.627 40.0525C101.852 39.987 102.086 39.9496 102.321 39.9589C102.752 39.9496 103.174 40.0619 103.539 40.2864C103.868 40.5016 104.13 40.7916 104.308 41.1471C104.561 40.8103 104.889 40.5203 105.255 40.3051Z" fill="#27B45F"/>
<path d="M114.855 46.7893V45.9659C114.611 46.2466 114.311 46.4805 113.983 46.6489C113.58 46.8454 113.139 46.939 112.689 46.9296C112.38 46.9296 112.07 46.8828 111.78 46.7986C111.508 46.7144 111.255 46.5834 111.03 46.4057C110.561 46.0314 110.299 45.4701 110.317 44.8713V44.8432C110.308 44.5158 110.383 44.1883 110.524 43.8983C110.655 43.6363 110.842 43.4024 111.086 43.2247C111.349 43.0375 111.639 42.9066 111.948 42.8224C112.305 42.7288 112.67 42.6914 113.036 42.6914C113.383 42.6914 113.73 42.7101 114.067 42.7662C114.348 42.813 114.62 42.8785 114.883 42.972V42.8036C114.911 42.4013 114.751 42.0177 114.461 41.7464C114.114 41.4844 113.673 41.3535 113.242 41.3815C112.905 41.3815 112.558 41.419 112.23 41.4938C111.92 41.578 111.62 41.6716 111.33 41.7932L110.917 40.5676C111.283 40.3992 111.667 40.2682 112.052 40.1653C112.511 40.053 112.98 40.0062 113.458 40.0156C114.461 40.0156 115.192 40.2588 115.679 40.7547C116.158 41.2506 116.401 41.9429 116.401 42.8317V46.7893H114.855ZM114.892 43.9638C114.667 43.8796 114.433 43.8141 114.198 43.7767C113.917 43.7205 113.636 43.7018 113.355 43.7018C112.961 43.6831 112.567 43.7767 112.23 43.9825C111.967 44.1602 111.808 44.4596 111.827 44.7777V44.8058C111.817 45.0958 111.958 45.3765 112.202 45.5356C112.473 45.7133 112.792 45.7975 113.12 45.7882C113.355 45.7882 113.598 45.7601 113.823 45.6853C114.03 45.6198 114.217 45.5262 114.386 45.4046C114.545 45.283 114.667 45.1333 114.761 44.9649C114.855 44.7871 114.901 44.5906 114.892 44.3941V43.9638Z" fill="#27B45F"/>
<path d="M122.777 45.7408C122.655 45.9934 122.477 46.218 122.252 46.3957C122.017 46.5735 121.746 46.7045 121.455 46.7887C121.136 46.8822 120.808 46.929 120.48 46.9197C119.983 46.9197 119.486 46.8355 119.018 46.667C118.521 46.4986 118.052 46.246 117.64 45.9186L118.324 44.8801C118.661 45.1327 119.036 45.3385 119.43 45.4976C119.777 45.6285 120.143 45.7034 120.518 45.7034C120.789 45.7221 121.052 45.6472 121.286 45.5069C121.464 45.3946 121.567 45.1982 121.567 44.983V44.9549C121.567 44.8333 121.53 44.721 121.446 44.6275C121.352 44.5245 121.239 44.4403 121.118 44.3842C120.968 44.3093 120.799 44.2439 120.639 44.1971L120.077 44.0287C119.833 43.9538 119.59 43.8696 119.336 43.7761C119.093 43.6919 118.868 43.5702 118.661 43.4112C118.465 43.2615 118.296 43.0837 118.174 42.8685C118.043 42.6253 117.977 42.3446 117.987 42.0639V42.0359C117.987 41.7458 118.043 41.4558 118.165 41.1938C118.286 40.9412 118.455 40.726 118.671 40.5483C118.896 40.3705 119.149 40.2302 119.43 40.146C119.73 40.0524 120.049 40.0056 120.358 40.0056C120.789 40.0056 121.221 40.0711 121.633 40.2114C122.055 40.3424 122.449 40.5296 122.814 40.7728L122.205 41.8581C121.896 41.671 121.568 41.5119 121.23 41.3997C120.939 41.2967 120.63 41.2312 120.321 41.2312C120.077 41.2219 119.833 41.2874 119.627 41.4184C119.468 41.5306 119.374 41.7084 119.383 41.8955V41.9236C119.383 42.0359 119.43 42.1481 119.505 42.2323C119.599 42.3259 119.721 42.4101 119.843 42.4662C119.993 42.5504 120.161 42.6159 120.321 42.6721C120.499 42.7376 120.686 42.7937 120.883 42.8592C121.127 42.934 121.371 43.0182 121.624 43.1211C121.858 43.2147 122.083 43.3457 122.289 43.4954C122.486 43.6451 122.655 43.8228 122.777 44.038C122.908 44.2719 122.974 44.5432 122.964 44.8052V44.8333C122.983 45.142 122.917 45.4601 122.777 45.7408Z" fill="#27B45F"/>
<path d="M124.548 39.0984V37.6389H126.207V39.0984H124.548ZM124.613 46.789V40.1089H126.16V46.7797L124.613 46.789Z" fill="#27B45F"/>
<path d="M184.14 44.1035C183.915 44.6368 183.587 45.114 183.174 45.5069C182.743 45.9092 182.237 46.2273 181.684 46.4425C181.074 46.6764 180.428 46.7887 179.781 46.7887H176.472V37.9473H179.781C180.428 37.938 181.074 38.0502 181.684 38.2841C182.237 38.49 182.743 38.8081 183.174 39.2104C183.587 39.6033 183.924 40.0805 184.14 40.6138C184.59 41.7271 184.59 42.9808 184.14 44.1035ZM182.621 41.1658C182.481 40.8102 182.265 40.4828 182.003 40.2021C181.721 39.9214 181.393 39.7062 181.028 39.5659C180.625 39.4068 180.193 39.332 179.753 39.3414H178V45.3853H179.753C180.184 45.3946 180.615 45.3104 181.028 45.1607C181.393 45.0204 181.721 44.8146 182.003 44.5433C182.274 44.2719 182.481 43.9445 182.621 43.5889C182.921 42.8124 182.921 41.9517 182.621 41.1658Z" fill="#27B45F"/>
<path d="M188.012 45.2543C188.368 45.5443 188.818 45.7034 189.277 45.694C189.615 45.7034 189.952 45.6285 190.262 45.4882C190.571 45.3385 190.843 45.1326 191.086 44.8987L191.986 45.694C191.668 46.0682 191.283 46.377 190.843 46.6015C190.346 46.8448 189.802 46.9571 189.249 46.9477C188.79 46.9477 188.33 46.8635 187.899 46.6951C187.496 46.536 187.121 46.2928 186.812 45.984C186.493 45.6753 186.249 45.301 186.081 44.8894C185.893 44.4403 185.809 43.9538 185.818 43.4673C185.818 43.0088 185.893 42.541 186.062 42.1107C186.212 41.699 186.446 41.3248 186.737 41.0067C187.027 40.6886 187.374 40.436 187.768 40.2582C188.18 40.0711 188.63 39.9682 189.09 39.9775C189.577 39.9588 190.055 40.0617 190.496 40.2582C190.88 40.436 191.227 40.7073 191.499 41.0441C191.771 41.3809 191.977 41.7739 192.099 42.1949C192.239 42.644 192.305 43.1024 192.305 43.5702C192.305 43.6357 192.305 43.7012 192.305 43.776C192.305 43.8415 192.305 43.9164 192.286 43.9912H187.355C187.412 44.4777 187.646 44.9268 188.012 45.2543ZM190.777 42.9808C190.749 42.7469 190.702 42.513 190.608 42.2978C190.533 42.092 190.412 41.8955 190.262 41.7364C189.952 41.3996 189.521 41.2219 189.071 41.2312C188.63 41.2219 188.199 41.3996 187.899 41.7177C187.58 42.0732 187.384 42.513 187.337 42.9901H190.777V42.9808Z" fill="#27B45F"/>
<path d="M198.418 45.7408C198.296 45.9934 198.118 46.218 197.893 46.3957C197.658 46.5735 197.387 46.7045 197.105 46.7887C196.787 46.8822 196.459 46.929 196.13 46.9197C195.634 46.9197 195.137 46.8355 194.668 46.667C194.171 46.4986 193.703 46.246 193.29 45.9186L193.974 44.8801C194.312 45.1327 194.687 45.3385 195.081 45.4976C195.427 45.6285 195.793 45.7034 196.159 45.7034C196.43 45.7221 196.693 45.6472 196.927 45.5069C197.105 45.3946 197.209 45.1982 197.209 44.983V44.9549C197.209 44.8333 197.171 44.721 197.087 44.6275C196.993 44.5245 196.88 44.4403 196.759 44.3842C196.599 44.3093 196.44 44.2439 196.271 44.1971L195.709 44.0287C195.465 43.9538 195.221 43.8696 194.968 43.7761C194.724 43.6919 194.499 43.5702 194.302 43.4112C194.106 43.2615 193.937 43.0837 193.815 42.8685C193.684 42.6253 193.618 42.3446 193.628 42.0639V42.0359C193.628 41.7458 193.684 41.4558 193.806 41.1938C193.927 40.9412 194.096 40.726 194.312 40.5483C194.537 40.3705 194.799 40.2302 195.071 40.146C195.371 40.0524 195.69 40.0056 196.009 40.0056C196.44 40.0056 196.871 40.0711 197.284 40.2114C197.705 40.3424 198.099 40.5296 198.465 40.7728L197.855 41.8581C197.546 41.671 197.218 41.5119 196.88 41.3997C196.59 41.2967 196.28 41.2312 195.971 41.2312C195.727 41.2125 195.484 41.2874 195.287 41.4184C195.127 41.5306 195.034 41.7084 195.043 41.8955V41.9236C195.043 42.0359 195.09 42.1481 195.165 42.2323C195.259 42.3259 195.371 42.4101 195.502 42.4662C195.662 42.5411 195.821 42.6159 195.98 42.6721C196.168 42.7376 196.355 42.7937 196.543 42.8592C196.787 42.934 197.03 43.0182 197.274 43.1211C197.508 43.2147 197.733 43.3457 197.94 43.4954C198.137 43.6451 198.296 43.8228 198.427 44.038C198.558 44.2719 198.624 44.5432 198.615 44.8052V44.8333C198.624 45.142 198.549 45.4601 198.418 45.7408Z" fill="#27B45F"/>
<path d="M204.247 46.7885V45.9652C204.003 46.2459 203.703 46.4798 203.375 46.6482C202.972 46.8447 202.532 46.9382 202.082 46.9289C201.772 46.9289 201.463 46.8821 201.172 46.7979C200.9 46.7137 200.647 46.5827 200.422 46.4049C199.963 46.0307 199.691 45.4693 199.71 44.8706V44.8425C199.701 44.515 199.776 44.1876 199.916 43.8975C200.047 43.6356 200.244 43.4017 200.479 43.2239C200.741 43.0368 201.032 42.9058 201.341 42.8216C201.697 42.7281 202.053 42.6813 202.419 42.6906C202.766 42.6906 203.113 42.7093 203.45 42.7655C203.731 42.8123 204.003 42.8778 204.266 42.9713V42.8029C204.294 42.4006 204.135 42.017 203.844 41.7457C203.497 41.4837 203.057 41.3527 202.625 41.3808C202.288 41.3808 201.941 41.4182 201.613 41.4931C201.304 41.5679 201.004 41.6708 200.713 41.7925L200.291 40.5668C200.657 40.3984 201.041 40.2674 201.435 40.1645C201.894 40.0523 202.363 40.0055 202.841 40.0148C203.835 40.0148 204.575 40.2581 205.053 40.754C205.531 41.2498 205.775 41.9422 205.775 42.831V46.7885H204.247ZM204.285 43.963C204.06 43.8788 203.825 43.8133 203.591 43.7759C203.31 43.7198 203.028 43.7011 202.747 43.7011C202.353 43.6824 201.96 43.7759 201.622 43.9818C201.36 44.1595 201.2 44.4589 201.219 44.777V44.8051C201.21 45.0951 201.35 45.3758 201.594 45.5348C201.866 45.7126 202.185 45.7968 202.513 45.7874C202.747 45.7874 202.991 45.7594 203.216 45.6845C203.422 45.6284 203.61 45.5255 203.778 45.4039C203.938 45.2822 204.06 45.1325 204.153 44.9641C204.247 44.7864 204.285 44.5899 204.285 44.3934V43.963Z" fill="#27B45F"/>
<path d="M139.191 44.1035C138.966 44.6368 138.638 45.114 138.225 45.5069C137.794 45.9092 137.288 46.2273 136.735 46.4425C136.125 46.6764 135.478 46.7887 134.832 46.7887H131.522V37.9473H134.832C135.478 37.938 136.125 38.0502 136.735 38.2841C137.288 38.49 137.794 38.8081 138.225 39.2104C138.638 39.6033 138.975 40.0805 139.191 40.6138C139.65 41.7271 139.65 42.9808 139.191 44.1035ZM137.681 41.1658C137.541 40.8102 137.325 40.4828 137.053 40.2021C136.781 39.9214 136.444 39.7062 136.088 39.5659C135.685 39.4068 135.253 39.332 134.813 39.3414H133.06V45.3853H134.813C135.244 45.3946 135.675 45.3104 136.088 45.1607C136.453 45.0204 136.781 44.8146 137.053 44.5433C137.325 44.2719 137.531 43.9445 137.681 43.5889C137.972 42.8124 137.972 41.9517 137.681 41.1658Z" fill="#27B45F"/>
<path d="M141.271 39.0984V37.6389H142.931V39.0984H141.271ZM141.337 46.789V40.1089H142.884V46.7797L141.337 46.789Z" fill="#27B45F"/>
<path d="M150.506 48.0145C149.878 48.5665 148.996 48.8378 147.843 48.8378C146.793 48.8565 145.753 48.5759 144.853 48.0426L145.415 46.8918C145.772 47.107 146.147 47.2847 146.54 47.4064C146.953 47.5374 147.375 47.6028 147.806 47.5935C148.378 47.6309 148.94 47.4438 149.381 47.0696C149.765 46.6579 149.971 46.0965 149.924 45.5352V45.0112C149.662 45.3668 149.324 45.6662 148.949 45.9001C148.528 46.1433 148.05 46.2649 147.571 46.2462C147.178 46.2462 146.793 46.1807 146.428 46.0404C146.062 45.9001 145.734 45.6942 145.462 45.4229C145.172 45.1422 144.947 44.8054 144.787 44.4405C144.45 43.5891 144.45 42.6442 144.787 41.7834C144.947 41.4092 145.172 41.0817 145.462 40.7917C145.743 40.5204 146.072 40.3146 146.437 40.1742C146.793 40.0339 147.178 39.959 147.562 39.959C148.05 39.9403 148.537 40.0526 148.968 40.2959C149.324 40.511 149.643 40.7824 149.915 41.1098V40.09H151.462V45.4229C151.452 46.6111 151.124 47.4719 150.506 48.0145ZM149.765 42.3635C149.662 42.139 149.521 41.9425 149.343 41.7834C149.156 41.6244 148.949 41.4934 148.715 41.4092C148.471 41.325 148.218 41.2782 147.965 41.2782C147.712 41.2782 147.459 41.325 147.215 41.4092C146.99 41.4934 146.793 41.615 146.615 41.7834C146.437 41.9425 146.306 42.139 146.212 42.3635C146.109 42.5974 146.062 42.8594 146.062 43.112C146.053 43.6172 146.259 44.1037 146.625 44.4499C146.793 44.6183 147 44.7399 147.225 44.8241C147.459 44.9177 147.712 44.9551 147.965 44.9551C148.218 44.9551 148.481 44.9083 148.715 44.8241C148.949 44.7399 149.156 44.6183 149.343 44.4499C149.521 44.2815 149.662 44.0944 149.765 43.8698C149.868 43.6359 149.924 43.3833 149.924 43.1213C149.924 42.8594 149.868 42.6068 149.765 42.3635Z" fill="#27B45F"/>
<path d="M153.375 39.0984V37.6389H155.034V39.0984H153.375ZM153.441 46.789V40.1089H154.987V46.7797L153.441 46.789Z" fill="#27B45F"/>
<path d="M158.83 44.7024C158.811 44.9363 158.886 45.1702 159.046 45.348C159.214 45.4883 159.439 45.5538 159.655 45.5445C159.983 45.5445 160.311 45.4603 160.602 45.3106V46.5549C160.405 46.6672 160.199 46.7514 159.983 46.8075C159.739 46.873 159.477 46.9011 159.224 46.8917C158.961 46.8917 158.699 46.8637 158.446 46.7888C158.221 46.7233 158.005 46.611 157.827 46.4614C157.649 46.2929 157.508 46.0871 157.424 45.8626C157.321 45.5632 157.274 45.2451 157.283 44.927V41.4091H156.439V40.0993H157.283V38.2749H158.83V40.0993H160.63V41.3998H158.83V44.7024Z" fill="#27B45F"/>
<path d="M166.255 46.7893V45.9659C166.011 46.2466 165.711 46.4805 165.383 46.6489C164.98 46.8454 164.539 46.939 164.089 46.9296C163.78 46.9296 163.471 46.8828 163.18 46.7986C162.908 46.7144 162.655 46.5834 162.43 46.4057C161.971 46.0314 161.699 45.4701 161.718 44.8713V44.8432C161.708 44.5158 161.783 44.1883 161.924 43.8983C162.055 43.6363 162.252 43.4024 162.486 43.2247C162.749 43.0375 163.039 42.9066 163.349 42.8224C163.705 42.7288 164.061 42.682 164.427 42.6914C164.774 42.6914 165.121 42.7101 165.458 42.7662C165.739 42.813 166.011 42.8785 166.274 42.972V42.8036C166.302 42.4013 166.142 42.0177 165.852 41.7464C165.505 41.4844 165.064 41.3535 164.633 41.3815C164.296 41.3815 163.949 41.419 163.621 41.4938C163.311 41.5687 163.011 41.6716 162.721 41.7932L162.299 40.5676C162.665 40.3992 163.049 40.2682 163.443 40.1653C163.902 40.053 164.371 40.0062 164.849 40.0156C165.842 40.0156 166.583 40.2588 167.061 40.7547C167.539 41.2506 167.783 41.9429 167.783 42.8317V46.7893H166.255ZM166.292 43.9638C166.067 43.8796 165.833 43.8141 165.599 43.7767C165.317 43.7205 165.036 43.7018 164.755 43.7018C164.361 43.6831 163.968 43.7767 163.63 43.9825C163.368 44.1602 163.208 44.4596 163.227 44.7777V44.8058C163.218 45.0958 163.358 45.3765 163.602 45.5356C163.874 45.7133 164.193 45.7975 164.521 45.7882C164.755 45.7882 164.999 45.7601 165.224 45.6853C165.43 45.6291 165.617 45.5262 165.786 45.4046C165.946 45.283 166.067 45.1333 166.161 44.9649C166.255 44.7871 166.302 44.5906 166.292 44.3941V43.9638Z" fill="#27B45F"/>
<path d="M169.686 46.7892V37.5642H171.232V46.7892H169.686Z" fill="#27B45F"/>
</g>
<defs>
<clipPath id="clip0_904_536">
<rect width="206.948" height="49.3152" fill="white"/>
</clipPath>
</defs>
</svg>
